<?xml version="1.0" encoding="UTF-8" standalone="no"?>
<!-- Created with Inkscape (http://www.inkscape.org/) -->

<svg
   width="19.096649mm"
   height="11.149541mm"
   viewBox="0 0 19.096649 11.149541"
   version="1.1"
   id="svg6473"
   inkscape:version="1.2.2 (732a01da63, 2022-12-09, custom)"
   sodipodi:docname="snow.svg"
   xmlns:inkscape="http://www.inkscape.org/namespaces/inkscape"
   xmlns:sodipodi="http://sodipodi.sourceforge.net/DTD/sodipodi-0.dtd"
   xmlns="http://www.w3.org/2000/svg"
   xmlns:svg="http://www.w3.org/2000/svg">
  <sodipodi:namedview
     id="namedview6475"
     pagecolor="#ffffff"
     bordercolor="#000000"
     borderopacity="0.25"
     inkscape:showpageshadow="2"
     inkscape:pageopacity="0.0"
     inkscape:pagecheckerboard="0"
     inkscape:deskcolor="#d1d1d1"
     inkscape:document-units="mm"
     showgrid="false"
     inkscape:zoom="0.78127806"
     inkscape:cx="74.877311"
     inkscape:cy="-42.238483"
     inkscape:window-width="1920"
     inkscape:window-height="1043"
     inkscape:window-x="0"
     inkscape:window-y="228"
     inkscape:window-maximized="1"
     inkscape:current-layer="layer1" />
  <defs
     id="defs6470" />
  <g
     inkscape:label="Layer 1"
     inkscape:groupmode="layer"
     id="layer1"
     transform="translate(-85.274936,-159.68863)">
    <g
       id="g6440"
       transform="translate(72.920361,106.04789)">
      <path
         sodipodi:type="star"
         style="fill:#ffffff;stroke:#ffffff;stroke-width:2;stroke-linecap:round;stroke-linejoin:miter;stroke-dasharray:none;stroke-opacity:1;paint-order:normal"
         id="path6287"
         inkscape:flatsided="false"
         sodipodi:sides="6"
         sodipodi:cx="145.97469"
         sodipodi:cy="163.20262"
         sodipodi:r1="0.041602045"
         sodipodi:r2="4.1602044"
         sodipodi:arg1="0.93792349"
         sodipodi:arg2="1.4615223"
         inkscape:rounded="0.05"
         inkscape:randomized="0"
         d="m 145.99929,163.23617 c -0.16627,0.12196 0.63408,4.07935 0.42909,4.10184 -0.20498,0.0225 -0.28168,-4.01429 -0.47044,-4.09731 -0.18877,-0.083 -3.21579,2.58881 -3.33776,2.42253 -0.12197,-0.16627 3.33564,-2.25109 3.31315,-2.45607 -0.0225,-0.20498 -3.84986,-1.49056 -3.76685,-1.67932 0.083,-0.18876 3.61732,1.7632 3.7836,1.64124 0.16627,-0.12197 -0.63407,-4.07936 -0.42909,-4.10185 0.20498,-0.0225 0.28168,4.01429 0.47044,4.09731 0.18877,0.083 3.21579,-2.5888 3.33776,-2.42253 0.12197,0.16628 -3.33564,2.25109 -3.31315,2.45607 0.0225,0.20499 3.84986,1.49056 3.76685,1.67932 -0.083,0.18877 -3.61732,-1.7632 -3.7836,-1.64123 z"
         transform="matrix(0.26458333,0,0,0.26458333,-24.997001,13.832341)"
         inkscape:transform-center-x="0.0015495887"
         inkscape:transform-center-y="-0.10363564" />
      <path
         sodipodi:type="star"
         style="fill:#ffffff;stroke:#ffffff;stroke-width:2;stroke-linecap:round;stroke-linejoin:miter;stroke-dasharray:none;stroke-opacity:1;paint-order:normal"
         id="path6287-2"
         inkscape:flatsided="false"
         sodipodi:sides="6"
         sodipodi:cx="145.97469"
         sodipodi:cy="163.20262"
         sodipodi:r1="0.041602045"
         sodipodi:r2="4.1602044"
         sodipodi:arg1="0.93792349"
         sodipodi:arg2="1.4615223"
         inkscape:rounded="0.05"
         inkscape:randomized="0"
         d="m 145.99929,163.23617 c -0.16627,0.12196 0.63408,4.07935 0.42909,4.10184 -0.20498,0.0225 -0.28168,-4.01429 -0.47044,-4.09731 -0.18877,-0.083 -3.21579,2.58881 -3.33776,2.42253 -0.12197,-0.16627 3.33564,-2.25109 3.31315,-2.45607 -0.0225,-0.20498 -3.84986,-1.49056 -3.76685,-1.67932 0.083,-0.18876 3.61732,1.7632 3.7836,1.64124 0.16627,-0.12197 -0.63407,-4.07936 -0.42909,-4.10185 0.20498,-0.0225 0.28168,4.01429 0.47044,4.09731 0.18877,0.083 3.21579,-2.5888 3.33776,-2.42253 0.12197,0.16628 -3.33564,2.25109 -3.31315,2.45607 0.0225,0.20499 3.84986,1.49056 3.76685,1.67932 -0.083,0.18877 -3.61732,-1.7632 -3.7836,-1.64123 z"
         transform="matrix(0.26458333,0,0,0.26458333,-20.588144,11.818659)"
         inkscape:transform-center-x="0.0015495887"
         inkscape:transform-center-y="-0.10363564" />
      <path
         sodipodi:type="star"
         style="fill:#ffffff;stroke:#ffffff;stroke-width:2;stroke-linecap:round;stroke-linejoin:miter;stroke-dasharray:none;stroke-opacity:1;paint-order:normal"
         id="path6287-0"
         inkscape:flatsided="false"
         sodipodi:sides="6"
         sodipodi:cx="145.97469"
         sodipodi:cy="163.20262"
         sodipodi:r1="0.041602045"
         sodipodi:r2="4.1602044"
         sodipodi:arg1="0.93792349"
         sodipodi:arg2="1.4615223"
         inkscape:rounded="0.05"
         inkscape:randomized="0"
         d="m 145.99929,163.23617 c -0.16627,0.12196 0.63408,4.07935 0.42909,4.10184 -0.20498,0.0225 -0.28168,-4.01429 -0.47044,-4.09731 -0.18877,-0.083 -3.21579,2.58881 -3.33776,2.42253 -0.12197,-0.16627 3.33564,-2.25109 3.31315,-2.45607 -0.0225,-0.20498 -3.84986,-1.49056 -3.76685,-1.67932 0.083,-0.18876 3.61732,1.7632 3.7836,1.64124 0.16627,-0.12197 -0.63407,-4.07936 -0.42909,-4.10185 0.20498,-0.0225 0.28168,4.01429 0.47044,4.09731 0.18877,0.083 3.21579,-2.5888 3.33776,-2.42253 0.12197,0.16628 -3.33564,2.25109 -3.31315,2.45607 0.0225,0.20499 3.84986,1.49056 3.76685,1.67932 -0.083,0.18877 -3.61732,-1.7632 -3.7836,-1.64123 z"
         transform="matrix(0.26458333,0,0,0.26458333,-13.752521,13.396418)"
         inkscape:transform-center-x="0.0015495887"
         inkscape:transform-center-y="-0.10363564" />
      <path
         sodipodi:type="star"
         style="fill:#ffffff;stroke:#ffffff;stroke-width:2;stroke-linecap:round;stroke-linejoin:miter;stroke-dasharray:none;stroke-opacity:1;paint-order:normal"
         id="path6287-23"
         inkscape:flatsided="false"
         sodipodi:sides="6"
         sodipodi:cx="145.97469"
         sodipodi:cy="163.20262"
         sodipodi:r1="0.041602045"
         sodipodi:r2="4.1602044"
         sodipodi:arg1="0.93792349"
         sodipodi:arg2="1.4615223"
         inkscape:rounded="0.05"
         inkscape:randomized="0"
         d="m 145.99929,163.23617 c -0.16627,0.12196 0.63408,4.07935 0.42909,4.10184 -0.20498,0.0225 -0.28168,-4.01429 -0.47044,-4.09731 -0.18877,-0.083 -3.21579,2.58881 -3.33776,2.42253 -0.12197,-0.16627 3.33564,-2.25109 3.31315,-2.45607 -0.0225,-0.20498 -3.84986,-1.49056 -3.76685,-1.67932 0.083,-0.18876 3.61732,1.7632 3.7836,1.64124 0.16627,-0.12197 -0.63407,-4.07936 -0.42909,-4.10185 0.20498,-0.0225 0.28168,4.01429 0.47044,4.09731 0.18877,0.083 3.21579,-2.5888 3.33776,-2.42253 0.12197,0.16628 -3.33564,2.25109 -3.31315,2.45607 0.0225,0.20499 3.84986,1.49056 3.76685,1.67932 -0.083,0.18877 -3.61732,-1.7632 -3.7836,-1.64123 z"
         transform="matrix(0.26458333,0,0,0.26458333,-18.6527,18.074177)"
         inkscape:transform-center-x="0.0015495887"
         inkscape:transform-center-y="-0.10363564" />
      <path
         sodipodi:type="star"
         style="fill:#ffffff;stroke:#ffffff;stroke-width:2;stroke-linecap:round;stroke-linejoin:miter;stroke-dasharray:none;stroke-opacity:1;paint-order:normal"
         id="path6287-7"
         inkscape:flatsided="false"
         sodipodi:sides="6"
         sodipodi:cx="145.97469"
         sodipodi:cy="163.20262"
         sodipodi:r1="0.041602045"
         sodipodi:r2="4.1602044"
         sodipodi:arg1="0.93792349"
         sodipodi:arg2="1.4615223"
         inkscape:rounded="0.05"
         inkscape:randomized="0"
         d="m 145.99929,163.23617 c -0.16627,0.12196 0.63408,4.07935 0.42909,4.10184 -0.20498,0.0225 -0.28168,-4.01429 -0.47044,-4.09731 -0.18877,-0.083 -3.21579,2.58881 -3.33776,2.42253 -0.12197,-0.16627 3.33564,-2.25109 3.31315,-2.45607 -0.0225,-0.20498 -3.84986,-1.49056 -3.76685,-1.67932 0.083,-0.18876 3.61732,1.7632 3.7836,1.64124 0.16627,-0.12197 -0.63407,-4.07936 -0.42909,-4.10185 0.20498,-0.0225 0.28168,4.01429 0.47044,4.09731 0.18877,0.083 3.21579,-2.5888 3.33776,-2.42253 0.12197,0.16628 -3.33564,2.25109 -3.31315,2.45607 0.0225,0.20499 3.84986,1.49056 3.76685,1.67932 -0.083,0.18877 -3.61732,-1.7632 -3.7836,-1.64123 z"
         transform="matrix(0.26458333,0,0,0.26458333,-12.098356,20.25098)"
         inkscape:transform-center-x="0.0015495887"
         inkscape:transform-center-y="-0.10363564" />
      <path
         sodipodi:type="star"
         style="fill:#ffffff;stroke:#ffffff;stroke-width:2;stroke-linecap:round;stroke-linejoin:miter;stroke-dasharray:none;stroke-opacity:1;paint-order:normal"
         id="path6287-5"
         inkscape:flatsided="false"
         sodipodi:sides="6"
         sodipodi:cx="145.97469"
         sodipodi:cy="163.20262"
         sodipodi:r1="0.041602045"
         sodipodi:r2="4.1602044"
         sodipodi:arg1="0.93792349"
         sodipodi:arg2="1.4615223"
         inkscape:rounded="0.05"
         inkscape:randomized="0"
         d="m 145.99929,163.23617 c -0.16627,0.12196 0.63408,4.07935 0.42909,4.10184 -0.20498,0.0225 -0.28168,-4.01429 -0.47044,-4.09731 -0.18877,-0.083 -3.21579,2.58881 -3.33776,2.42253 -0.12197,-0.16627 3.33564,-2.25109 3.31315,-2.45607 -0.0225,-0.20498 -3.84986,-1.49056 -3.76685,-1.67932 0.083,-0.18876 3.61732,1.7632 3.7836,1.64124 0.16627,-0.12197 -0.63407,-4.07936 -0.42909,-4.10185 0.20498,-0.0225 0.28168,4.01429 0.47044,4.09731 0.18877,0.083 3.21579,-2.5888 3.33776,-2.42253 0.12197,0.16628 -3.33564,2.25109 -3.31315,2.45607 0.0225,0.20499 3.84986,1.49056 3.76685,1.67932 -0.083,0.18877 -3.61732,-1.7632 -3.7836,-1.64123 z"
         transform="matrix(0.26458333,0,0,0.26458333,-8.4421366,14.640072)"
         inkscape:transform-center-x="0.0015495887"
         inkscape:transform-center-y="-0.10363564" />
      <path
         sodipodi:type="star"
         style="fill:#ffffff;stroke:#ffffff;stroke-width:2;stroke-linecap:round;stroke-linejoin:miter;stroke-dasharray:none;stroke-opacity:1;paint-order:normal"
         id="path6287-9"
         inkscape:flatsided="false"
         sodipodi:sides="6"
         sodipodi:cx="145.97469"
         sodipodi:cy="163.20262"
         sodipodi:r1="0.041602045"
         sodipodi:r2="4.1602044"
         sodipodi:arg1="0.93792349"
         sodipodi:arg2="1.4615223"
         inkscape:rounded="0.05"
         inkscape:randomized="0"
         d="m 145.99929,163.23617 c -0.16627,0.12196 0.63408,4.07935 0.42909,4.10184 -0.20498,0.0225 -0.28168,-4.01429 -0.47044,-4.09731 -0.18877,-0.083 -3.21579,2.58881 -3.33776,2.42253 -0.12197,-0.16627 3.33564,-2.25109 3.31315,-2.45607 -0.0225,-0.20498 -3.84986,-1.49056 -3.76685,-1.67932 0.083,-0.18876 3.61732,1.7632 3.7836,1.64124 0.16627,-0.12197 -0.63407,-4.07936 -0.42909,-4.10185 0.20498,-0.0225 0.28168,4.01429 0.47044,4.09731 0.18877,0.083 3.21579,-2.5888 3.33776,-2.42253 0.12197,0.16628 -3.33564,2.25109 -3.31315,2.45607 0.0225,0.20499 3.84986,1.49056 3.76685,1.67932 -0.083,0.18877 -3.61732,-1.7632 -3.7836,-1.64123 z"
         transform="matrix(0.26458333,0,0,0.26458333,-23.720067,20.053237)"
         inkscape:transform-center-x="0.0015495887"
         inkscape:transform-center-y="-0.10363564" />
    </g>
  </g>
</svg>
